<?xml version="1.0" encoding="UTF-8"?>
<svg width="100" height="100" viewBox="0 0 100 100" xmlns="http://www.w3.org/2000/svg">
  <!-- Pokémon-style Puzzle Piece Icon -->
  <defs>
    <radialGradient id="glow" cx="50%" cy="50%" r="50%" fx="50%" fy="50%">
      <stop offset="0%" stop-color="#9B59B6" stop-opacity="0.8"/>
      <stop offset="100%" stop-color="#9B59B6" stop-opacity="0"/>
    </radialGradient>
  </defs>
  
  <!-- Glow effect -->
  <circle cx="50" cy="50" r="45" fill="url(#glow)" opacity="0.6"/>
  
  <!-- Puzzle piece shape -->
  <path d="M70,30 C70,25 75,22.5 80,25 C85,27.5 90,25 90,20 C90,15 85,12.5 80,15 C75,17.5 70,15 70,10 L30,10
           C30,15 25,17.5 20,15 C15,12.5 10,15 10,20 C10,25 15,27.5 20,25 C25,22.5 30,25 30,30 L30,70
           C25,70 22.5,75 25,80 C27.5,85 25,90 20,90 C15,90 12.5,85 15,80 C17.5,75 15,70 10,70 L10,30
           L10,70 L70,70 C70,75 75,77.5 80,75 C85,72.5 90,75 90,80 C90,85 85,87.5 80,85 C75,82.5 70,85 70,90 L30,90
           L70,90 L70,30" 
        fill="#9B59B6" stroke="#FFFFFF" stroke-width="3"/>
  
  <!-- Pokéball circle in center -->
  <circle cx="50" cy="50" r="15" fill="#FFFFFF" stroke="#333333" stroke-width="2"/>
  <line x1="35" y1="50" x2="65" y2="50" stroke="#333333" stroke-width="2"/>
  <circle cx="50" cy="50" r="5" fill="#9B59B6" stroke="#333333" stroke-width="1"/>
  
  <!-- Pulse animation -->
  <circle cx="50" cy="50" r="40" stroke="#9B59B6" stroke-width="2" fill="none" opacity="0.5">
    <animate attributeName="r" from="30" to="50" dur="1.8s" begin="0s" repeatCount="indefinite"/>
    <animate attributeName="opacity" from="0.6" to="0" dur="1.8s" begin="0s" repeatCount="indefinite"/>
  </circle>
</svg>
