<?xml version="1.0" encoding="UTF-8"?>
<svg width="100" height="100" viewBox="0 0 100 100" xmlns="http://www.w3.org/2000/svg">
  <!-- Pokémon-style QR Code Icon -->
  <defs>
    <radialGradient id="glow" cx="50%" cy="50%" r="50%" fx="50%" fy="50%">
      <stop offset="0%" stop-color="#2ECC71" stop-opacity="0.8"/>
      <stop offset="100%" stop-color="#2ECC71" stop-opacity="0"/>
    </radialGradient>
  </defs>
  
  <!-- Glow effect -->
  <circle cx="50" cy="50" r="45" fill="url(#glow)" opacity="0.6"/>
  
  <!-- QR code outline -->
  <rect x="20" y="20" width="60" height="60" rx="3" ry="3" fill="#2ECC71" stroke="#FFFFFF" stroke-width="3"/>
  
  <!-- QR code inner patterns -->
  <!-- Corner squares -->
  <rect x="25" y="25" width="15" height="15" fill="#FFFFFF"/>
  <rect x="28" y="28" width="9" height="9" fill="#2ECC71"/>
  
  <rect x="60" y="25" width="15" height="15" fill="#FFFFFF"/>
  <rect x="63" y="28" width="9" height="9" fill="#2ECC71"/>
  
  <rect x="25" y="60" width="15" height="15" fill="#FFFFFF"/>
  <rect x="28" y="63" width="9" height="9" fill="#2ECC71"/>
  
  <!-- QR code cells -->
  <rect x="45" y="25" width="5" height="5" fill="#FFFFFF"/>
  <rect x="50" y="30" width="5" height="5" fill="#FFFFFF"/>
  <rect x="55" y="35" width="5" height="5" fill="#FFFFFF"/>
  <rect x="45" y="40" width="5" height="5" fill="#FFFFFF"/>
  <rect x="55" y="40" width="5" height="5" fill="#FFFFFF"/>
  <rect x="50" y="45" width="5" height="5" fill="#FFFFFF"/>
  <rect x="30" y="45" width="5" height="5" fill="#FFFFFF"/>
  <rect x="35" y="50" width="5" height="5" fill="#FFFFFF"/>
  <rect x="40" y="55" width="5" height="5" fill="#FFFFFF"/>
  <rect x="50" y="55" width="5" height="5" fill="#FFFFFF"/>
  <rect x="60" y="55" width="5" height="5" fill="#FFFFFF"/>
  <rect x="65" y="50" width="5" height="5" fill="#FFFFFF"/>
  <rect x="65" y="60" width="5" height="5" fill="#FFFFFF"/>
  <rect x="55" y="65" width="5" height="5" fill="#FFFFFF"/>
  <rect x="45" y="60" width="5" height="5" fill="#FFFFFF"/>
  
  <!-- Pokéball circle in center -->
  <circle cx="50" cy="50" r="10" fill="#FFFFFF" stroke="#333333" stroke-width="1.5"/>
  <line x1="40" y1="50" x2="60" y2="50" stroke="#333333" stroke-width="1.5"/>
  <circle cx="50" cy="50" r="4" fill="#2ECC71" stroke="#333333" stroke-width="0.75"/>
  
  <!-- Pulse animation -->
  <circle cx="50" cy="50" r="40" stroke="#2ECC71" stroke-width="2" fill="none" opacity="0.5">
    <animate attributeName="r" from="30" to="50" dur="1.8s" begin="0s" repeatCount="indefinite"/>
    <animate attributeName="opacity" from="0.6" to="0" dur="1.8s" begin="0s" repeatCount="indefinite"/>
  </circle>
</svg>
