<?xml version="1.0" encoding="UTF-8"?>
<svg width="250" height="250" viewBox="0 0 250 250" xmlns="http://www.w3.org/2000/svg">
  <!-- Stylized Arcanine -->
  <g transform="translate(25,20)">
    <path d="M100,10 C130,0 160,10 180,30 C190,40 195,55 195,70 
             C195,85 190,100 180,110 C190,120 195,135 190,150 
             C185,165 175,175 160,180 C150,190 135,195 120,195 
             C105,195 90,190 80,180 C65,175 55,165 50,150 
             C45,135 50,120 60,110 C50,100 45,85 45,70 
             C45,55 50,40 60,30 C80,10 90,5 100,10 Z" fill="#F08030"/>
    <path d="M75,40 C85,30 100,30 110,40 C120,50 120,65 110,75 
             C100,85 85,85 75,75 C65,65 65,50 75,40 Z" fill="#F0A868"/>
    <path d="M130,40 C140,30 155,30 165,40 C175,50 175,65 165,75 
             C155,85 140,85 130,75 C120,65 120,50 130,40 Z" fill="#F0A868"/>
    <path d="M110,50 C120,40 135,40 145,50 C155,60 155,75 145,85 
             C135,95 120,95 110,85 C100,75 100,60 110,50 Z" fill="#FFFFFF"/>
    <path d="M95,60 C100,55 110,55 115,60 C120,65 120,75 115,80 
             C110,85 100,85 95,80 C90,75 90,65 95,60 Z" fill="#000000"/>
    <path d="M140,60 C145,55 155,55 160,60 C165,65 165,75 160,80 
             C155,85 145,85 140,80 C135,75 135,65 140,60 Z" fill="#000000"/>
    <path d="M120,100 C125,95 135,95 140,100 C145,105 145,115 140,120 
             C135,125 125,125 120,120 C115,115 115,105 120,100 Z" fill="#F0A868"/>
    <path d="M85,110 C90,105 100,105 105,110 C110,115 110,125 105,130 
             C100,135 90,135 85,130 C80,125 80,115 85,110 Z" fill="#F0A868"/>
    <path d="M155,110 C160,105 170,105 175,110 C180,115 180,125 175,130 
             C170,135 160,135 155,130 C150,125 150,115 155,110 Z" fill="#F0A868"/>
    <path d="M70,140 C75,135 85,135 90,140 C95,145 95,155 90,160 
             C85,165 75,165 70,160 C65,155 65,145 70,140 Z" fill="#F0A868"/>
    <path d="M170,140 C175,135 185,135 190,140 C195,145 195,155 190,160 
             C185,165 175,165 170,160 C165,155 165,145 170,140 Z" fill="#F0A868"/>
  </g>
</svg>
