<?xml version="1.0" encoding="UTF-8"?>
<svg width="250" height="250" viewBox="0 0 250 250" xmlns="http://www.w3.org/2000/svg">
  <!-- Stylized Blastoise -->
  <g transform="translate(25,10)">
    <path d="M100,20 C120,0 150,0 170,20 C180,30 185,45 185,60 C185,75 180,90 175,100 
             C190,110 195,125 190,140 C185,155 175,165 160,170 
             C155,190 145,205 130,215 C115,225 100,225 85,215
             C70,205 60,190 55,170 C40,165 30,155 25,140
             C20,125 25,110 40,100 C35,90 30,75 30,60
             C30,45 35,30 45,20 C65,0 80,0 100,20 Z" fill="#6890F0"/>
    <path d="M110,50 C120,40 135,40 145,50 C155,60 155,75 145,85 
             C135,95 120,95 110,85 C100,75 100,60 110,50 Z" fill="#F8D030"/>
    <path d="M80,150 C75,145 75,140 80,135 C85,130 90,130 95,135 
             C100,140 100,145 95,150 C90,155 85,155 80,150 Z" fill="#F8D030"/>
    <path d="M120,150 C115,145 115,140 120,135 C125,130 130,130 135,135 
             C140,140 140,145 135,150 C130,155 125,155 120,150 Z" fill="#F8D030"/>
    <path d="M80,60 C85,55 90,55 95,60 C100,65 100,70 95,75 
             C90,80 85,80 80,75 C75,70 75,65 80,60 Z" fill="#FFFFFF"/>
    <path d="M90,65 C92,63 95,63 97,65 C99,67 99,69 97,71 
             C95,73 92,73 90,71 C88,69 88,67 90,65 Z" fill="#000000"/>
    <path d="M140,60 C145,55 150,55 155,60 C160,65 160,70 155,75 
             C150,80 145,80 140,75 C135,70 135,65 140,60 Z" fill="#FFFFFF"/>
    <path d="M150,65 C152,63 155,63 157,65 C159,67 159,69 157,71 
             C155,73 152,73 150,71 C148,69 148,67 150,65 Z" fill="#000000"/>
    <!-- Cannons -->
    <path d="M55,100 C40,95 25,100 20,115 C15,130 25,145 40,150 
             C45,140 50,130 55,120 Z" fill="#A8A878"/>
    <path d="M160,100 C175,95 190,100 195,115 C200,130 190,145 175,150 
             C170,140 165,130 160,120 Z" fill="#A8A878"/>
  </g>
</svg>
