<?xml version="1.0" encoding="UTF-8"?>
<svg width="250" height="250" viewBox="0 0 250 250" xmlns="http://www.w3.org/2000/svg">
  <!-- Stylized Charizard - Player Version -->
  <g transform="translate(25,10)">
    <path d="M100,20 C120,0 150,0 170,20 C180,30 185,45 185,60 C185,75 180,90 175,100 
             C190,110 195,125 190,140 C185,155 175,165 160,170 
             C155,190 145,205 130,215 C115,225 100,225 85,215
             C70,205 60,190 55,170 C40,165 30,155 25,140
             C20,125 25,110 40,100 C35,90 30,75 30,60
             C30,45 35,30 45,20 C65,0 80,0 100,20 Z" fill="#F08030"/>
    <path d="M110,50 C120,40 135,40 145,50 C155,60 155,75 145,85 
             C135,95 120,95 110,85 C100,75 100,60 110,50 Z" fill="#F0D050"/>
    <path d="M80,150 C75,145 75,140 80,135 C85,130 90,130 95,135 
             C100,140 100,145 95,150 C90,155 85,155 80,150 Z" fill="#F0D050"/>
    <path d="M120,150 C115,145 115,140 120,135 C125,130 130,130 135,135 
             C140,140 140,145 135,150 C130,155 125,155 120,150 Z" fill="#F0D050"/>
    <path d="M165,65 C160,60 160,50 165,45 C170,40 180,40 185,45 
             C190,50 190,60 185,65 C180,70 170,70 165,65 Z" fill="#F0D050"/>
    <path d="M70,70 C75,55 85,45 100,45 C115,45 125,55 130,70 
             L100,95 Z" fill="#F0D050"/>
    <path d="M100,95 L130,70 C135,85 135,100 130,115 
             C125,130 115,140 100,140 C85,140 75,130 70,115
             C65,100 65,85 70,70 Z" fill="#F0D050"/>
    <!-- Wings -->
    <path d="M30,80 C10,60 10,100 30,130 C35,140 45,150 55,155 
             C50,140 50,120 55,105 C40,100 35,90 30,80 Z" fill="#F08030"/>
    <path d="M185,80 C205,60 205,100 185,130 C180,140 170,150 160,155 
             C165,140 165,120 160,105 C175,100 180,90 185,80 Z" fill="#F08030"/>
  </g>
</svg>
