<?xml version="1.0" encoding="UTF-8"?>
<svg width="250" height="250" viewBox="0 0 250 250" xmlns="http://www.w3.org/2000/svg">
  <!-- Stylized Gyarados -->
  <g transform="translate(25,20)">
    <path d="M100,10 C130,0 160,10 180,30 C190,40 195,55 195,70 
             C195,85 190,100 180,110 C190,120 195,135 190,150 
             C185,165 175,175 160,180 C150,190 135,195 120,195 
             C105,195 90,190 80,180 C65,175 55,165 50,150 
             C45,135 50,120 60,110 C50,100 45,85 45,70 
             C45,55 50,40 60,30 C80,10 90,5 100,10 Z" fill="#6890F0"/>
    <path d="M110,40 C120,30 135,30 145,40 C155,50 155,65 145,75 
             C135,85 120,85 110,75 C100,65 100,50 110,40 Z" fill="#FFFFFF"/>
    <path d="M75,50 C80,45 90,45 95,50 C100,55 100,65 95,70 
             C90,75 80,75 75,70 C70,65 70,55 75,50 Z" fill="#FFFFFF"/>
    <path d="M145,50 C150,45 160,45 165,50 C170,55 170,65 165,70 
             C160,75 150,75 145,70 C140,65 140,55 145,50 Z" fill="#FFFFFF"/>
    <path d="M120,60 C125,55 135,55 140,60 C145,65 145,75 140,80 
             C135,85 125,85 120,80 C115,75 115,65 120,60 Z" fill="#000000"/>
    <path d="M100,120 C95,115 95,105 100,100 C105,95 115,95 120,100 
             C125,105 125,115 120,120 C115,125 105,125 100,120 Z" fill="#F08030"/>
    <path d="M120,140 C115,135 115,125 120,120 C125,115 135,115 140,120 
             C145,125 145,135 140,140 C135,145 125,145 120,140 Z" fill="#F08030"/>
    <path d="M80,140 C75,135 75,125 80,120 C85,115 95,115 100,120 
             C105,125 105,135 100,140 C95,145 85,145 80,140 Z" fill="#F08030"/>
    <path d="M140,120 C145,115 155,115 160,120 C165,125 165,135 160,140 
             C155,145 145,145 140,140 C135,135 135,125 140,120 Z" fill="#F08030"/>
    <path d="M60,120 C65,115 75,115 80,120 C85,125 85,135 80,140 
             C75,145 65,145 60,140 C55,135 55,125 60,120 Z" fill="#F08030"/>
  </g>
</svg>
