<?xml version="1.0" encoding="UTF-8"?>
<svg width="250" height="250" viewBox="0 0 250 250" xmlns="http://www.w3.org/2000/svg">
  <!-- Stylized Lucario -->
  <g transform="translate(25,10)">
    <path d="M120,20 C140,10 160,20 175,35 C185,45 190,60 190,75 
             C190,90 185,105 175,115 C185,125 190,140 185,155 
             C180,170 170,180 155,185 C145,195 130,200 115,200 
             C100,200 85,195 75,185 C60,180 50,170 45,155 
             C40,140 45,125 55,115 C45,105 40,90 40,75 
             C40,60 45,45 55,35 C70,20 90,10 120,20 Z" fill="#6890F0"/>
    <path d="M110,40 C115,35 125,35 130,40 C135,45 135,55 130,60 
             C125,65 115,65 110,60 C105,55 105,45 110,40 Z" fill="#FFFFFF"/>
    <path d="M90,50 C95,45 100,45 105,50 C110,55 110,60 105,65 
             C100,70 95,70 90,65 C85,60 85,55 90,50 Z" fill="#FFFFFF"/>
    <path d="M145,50 C150,45 155,45 160,50 C165,55 165,60 160,65 
             C155,70 150,70 145,65 C140,60 140,55 145,50 Z" fill="#FFFFFF"/>
    <path d="M100,57 C102,55 105,55 107,57 C109,59 109,61 107,63 
             C105,65 102,65 100,63 C98,61 98,59 100,57 Z" fill="#000000"/>
    <path d="M153,57 C155,55 158,55 160,57 C162,59 162,61 160,63 
             C158,65 155,65 153,63 C151,61 151,59 153,57 Z" fill="#000000"/>
    <path d="M120,75 C127,68 133,68 140,75 C145,80 145,87 140,92 
             C133,99 127,99 120,92 C115,87 115,80 120,75 Z" fill="#F0A868"/>
    <path d="M95,105 C100,100 110,100 115,105 C120,110 120,120 115,125 
             C110,130 100,130 95,125 C90,120 90,110 95,105 Z" fill="#F0A868"/>
    <path d="M145,105 C150,100 160,100 165,105 C170,110 170,120 165,125 
             C160,130 150,130 145,125 C140,120 140,110 145,105 Z" fill="#F0A868"/>
    <path d="M85,95 C90,90 95,90 100,95 C105,100 105,105 100,110 
             C95,115 90,115 85,110 C80,105 80,100 85,95 Z" fill="#000000"/>
    <path d="M160,95 C165,90 170,90 175,95 C180,100 180,105 175,110 
             C170,115 165,115 160,110 C155,105 155,100 160,95 Z" fill="#000000"/>
  </g>
</svg>
