<?xml version="1.0" encoding="UTF-8"?>
<svg width="250" height="250" viewBox="0 0 250 250" xmlns="http://www.w3.org/2000/svg">
  <!-- Stylized Tyranitar -->
  <g transform="translate(25,10)">
    <path d="M100,20 C120,0 150,0 170,20 C180,30 185,45 185,60 
             C185,75 180,90 175,100 C190,110 195,125 190,140 
             C185,155 175,165 160,170 C155,190 145,205 130,215 
             C115,225 100,225 85,215 C70,205 60,190 55,170 
             C40,165 30,155 25,140 C20,125 25,110 40,100 
             C35,90 30,75 30,60 C30,45 35,30 45,20 
             C65,0 80,0 100,20 Z" fill="#94C231"/>
    <path d="M85,50 C90,45 100,45 105,50 C110,55 110,65 105,70 
             C100,75 90,75 85,70 C80,65 80,55 85,50 Z" fill="#FFFFFF"/>
    <path d="M135,50 C140,45 150,45 155,50 C160,55 160,65 155,70 
             C150,75 140,75 135,70 C130,65 130,55 135,50 Z" fill="#FFFFFF"/>
    <path d="M95,60 C100,55 105,55 110,60 C115,65 115,70 110,75 
             C105,80 100,80 95,75 C90,70 90,65 95,60 Z" fill="#000000"/>
    <path d="M145,60 C150,55 155,55 160,60 C165,65 165,70 160,75 
             C155,80 150,80 145,75 C140,70 140,65 145,60 Z" fill="#000000"/>
    <path d="M115,90 C125,80 135,80 145,90 C150,95 150,105 145,110 
             C135,120 125,120 115,110 C110,105 110,95 115,90 Z" fill="#705848"/>
    <path d="M85,130 C90,125 95,125 100,130 C105,135 105,140 100,145 
             C95,150 90,150 85,145 C80,140 80,135 85,130 Z" fill="#705848"/>
    <path d="M125,130 C130,125 135,125 140,130 C145,135 145,140 140,145 
             C135,150 130,150 125,145 C120,140 120,135 125,130 Z" fill="#705848"/>
    <path d="M70,100 C80,90 90,90 100,100 C110,110 110,120 100,130 
             C90,140 80,140 70,130 C60,120 60,110 70,100 Z" fill="#705848"/>
    <path d="M160,100 C170,90 180,90 190,100 C200,110 200,120 190,130 
             C180,140 170,140 160,130 C150,120 150,110 160,100 Z" fill="#705848"/>
  </g>
</svg>
